<?xml version="1.0" encoding="utf-8"?>
<!-- Generator: Adobe Illustrator 16.0.0, SVG Export Plug-In . SVG Version: 6.00 Build 0)  -->
<!DOCTYPE svg PUBLIC "-//W3C//DTD SVG 1.1//EN" "http://www.w3.org/Graphics/SVG/1.1/DTD/svg11.dtd">
<svg version="1.1" id="Layer_1" xmlns="http://www.w3.org/2000/svg" xmlns:xlink="http://www.w3.org/1999/xlink" x="0px" y="0px"
	 width="156.082px" height="84.702px" viewBox="0 0 156.082 84.702" enable-background="new 0 0 156.082 84.702"
	 xml:space="preserve">
<g>
	<g>
		<path fill="#929497" d="M7.35,6.251h9.083v57.223H7.35V6.251z"/>
		<path fill="#929497" d="M45.8,58.479h-0.227c-1.313,2.069-2.978,3.57-4.996,4.503c-2.019,0.933-4.239,1.4-6.661,1.4
			c-1.665,0-3.292-0.228-4.882-0.681c-1.59-0.455-3.003-1.136-4.239-2.044c-1.237-0.909-2.233-2.044-2.99-3.406
			s-1.135-2.952-1.135-4.769c0-1.968,0.352-3.645,1.06-5.033c0.706-1.388,1.652-2.548,2.838-3.482
			c1.185-0.933,2.561-1.677,4.125-2.232c1.563-0.555,3.191-0.971,4.882-1.249c1.69-0.277,3.393-0.454,5.109-0.53
			c1.715-0.076,3.331-0.114,4.844-0.114H45.8v-0.984c0-2.271-0.783-3.974-2.347-5.109c-1.564-1.135-3.557-1.703-5.979-1.703
			c-1.918,0-3.709,0.34-5.374,1.021s-3.104,1.603-4.314,2.763l-4.769-4.769c2.018-2.068,4.377-3.557,7.077-4.466
			c2.699-0.908,5.488-1.362,8.364-1.362c2.574,0,4.743,0.291,6.51,0.871c1.766,0.581,3.229,1.325,4.39,2.233
			c1.16,0.908,2.055,1.956,2.687,3.141c0.63,1.186,1.084,2.384,1.362,3.595c0.277,1.211,0.441,2.384,0.492,3.52
			c0.049,1.135,0.076,2.132,0.076,2.99v20.891H45.8V58.479z M45.271,47.201h-1.893c-1.262,0-2.675,0.051-4.239,0.151
			c-1.564,0.102-3.041,0.34-4.428,0.719c-1.389,0.379-2.562,0.935-3.52,1.666c-0.959,0.731-1.438,1.754-1.438,3.064
			c0,0.859,0.189,1.578,0.568,2.158s0.871,1.072,1.476,1.476c0.605,0.404,1.287,0.694,2.043,0.87
			c0.757,0.178,1.514,0.266,2.271,0.266c3.128,0,5.437-0.744,6.926-2.233c1.488-1.487,2.233-3.52,2.233-6.093V47.201z"/>
		<path fill="#929497" d="M97.344,6.251h9.083v57.223h-9.083V6.251z"/>
		<path fill="#929497" d="M146.24,63.474h-8.629v-5.828h-0.152c-0.857,1.816-2.17,3.394-3.936,4.73
			c-1.767,1.337-4.163,2.006-7.19,2.006c-2.423,0-4.479-0.392-6.169-1.173c-1.691-0.782-3.065-1.842-4.125-3.18
			c-1.061-1.336-1.816-2.863-2.271-4.579c-0.453-1.715-0.681-3.507-0.681-5.374V27.142h9.083v18.394c0,1.01,0.05,2.132,0.151,3.367
			c0.101,1.238,0.365,2.398,0.795,3.482c0.428,1.086,1.085,1.994,1.968,2.725c0.883,0.732,2.131,1.098,3.746,1.098
			c1.515,0,2.788-0.252,3.823-0.757c1.034-0.504,1.892-1.185,2.573-2.044c0.682-0.857,1.174-1.841,1.477-2.951
			c0.303-1.109,0.453-2.271,0.453-3.482V27.142h9.084V63.474z"/>
	</g>
	<g>
		<path fill="#929497" d="M7.585,66.711H7.91v6.021c0.285-0.31,0.63-0.554,1.036-0.733c0.406-0.179,0.816-0.269,1.231-0.269
			c0.874,0,1.612,0.317,2.216,0.95c0.604,0.635,0.906,1.412,0.906,2.334c0,1.082-0.407,1.971-1.222,2.662
			c-0.814,0.693-1.937,1.039-3.368,1.039c-0.558,0-1.254-0.068-2.09-0.203V68.418c0-0.525-0.066-0.851-0.2-0.975
			c-0.133-0.123-0.465-0.186-0.997-0.186v-0.315L7.585,66.711z M7.91,73.223v3.842c0,0.5,0.085,0.844,0.256,1.029
			s0.466,0.278,0.888,0.278c0.874,0,1.565-0.281,2.074-0.845c0.508-0.562,0.763-1.351,0.763-2.365c0-0.848-0.22-1.54-0.66-2.078
			c-0.44-0.538-0.967-0.807-1.581-0.807C9.004,72.278,8.424,72.592,7.91,73.223z"/>
		<path fill="#929497" d="M24.559,71.73h0.315v5.648c0,0.372,0.079,0.622,0.236,0.753c0.158,0.13,0.465,0.195,0.923,0.195v0.314
			l-2.449,0.131v-1.234h-0.037c-0.674,0.879-1.46,1.317-2.356,1.317c-0.644,0-1.17-0.216-1.582-0.646
			c-0.412-0.431-0.617-0.971-0.617-1.621v-3.447c0-0.346-0.087-0.582-0.26-0.705c-0.173-0.125-0.486-0.187-0.937-0.187v-0.315
			l2.162-0.204h0.325v4.806c0,0.471,0.138,0.842,0.413,1.113c0.275,0.272,0.645,0.408,1.109,0.408c0.643,0,1.237-0.367,1.781-1.104
			v-3.635c0-0.465-0.071-0.756-0.213-0.874c-0.143-0.118-0.507-0.183-1.095-0.195v-0.315L24.559,71.73z"/>
		<path fill="#929497" d="M32.877,71.73v1.456c0.618-0.537,1.099-0.914,1.443-1.131c0.343-0.217,0.629-0.325,0.858-0.325
			c0.427,0,0.838,0.177,1.234,0.528l-0.51,1.197c-0.718-0.396-1.25-0.594-1.596-0.594c-0.384,0-0.86,0.272-1.429,0.816v3.699
			c0,0.373,0.077,0.623,0.232,0.754c0.154,0.13,0.451,0.195,0.891,0.195v0.314h-3.553v-0.314c0.47,0,0.778-0.074,0.923-0.224
			c0.145-0.149,0.218-0.506,0.218-1.07v-3.676c0-0.466-0.079-0.767-0.236-0.903c-0.158-0.136-0.543-0.204-1.155-0.204v-0.315
			l2.356-0.204H32.877z"/>
		<path fill="#929497" d="M48.44,75.301c0,1.016-0.351,1.861-1.053,2.537c-0.702,0.678-1.579,1.017-2.63,1.017
			c-1.052,0-1.928-0.339-2.63-1.017c-0.702-0.676-1.053-1.521-1.053-2.537c0-1.025,0.349-1.879,1.048-2.555
			c0.699-0.678,1.577-1.017,2.635-1.017s1.936,0.339,2.635,1.017C48.091,73.422,48.44,74.276,48.44,75.301z M47.04,75.307
			c0-0.961-0.204-1.734-0.612-2.323s-0.965-0.883-1.67-0.883s-1.262,0.288-1.67,0.864s-0.612,1.356-0.612,2.342
			c0,0.965,0.203,1.736,0.608,2.312c0.405,0.576,0.963,0.864,1.674,0.864c0.711,0,1.27-0.291,1.674-0.874
			C46.837,77.028,47.04,76.26,47.04,75.307z M43.356,70.505l1.234-3.794h1.048l-1.92,3.794H43.356z"/>
		<path fill="#929497" d="M61.128,71.192l0.158,2.607h-0.325c-0.681-1.447-1.559-2.172-2.635-2.172c-0.73,0-1.305,0.283-1.726,0.85
			c-0.421,0.566-0.631,1.34-0.631,2.324c0,1.008,0.233,1.798,0.7,2.369c0.467,0.572,1.112,0.859,1.935,0.859
			c0.538,0,0.988-0.098,1.35-0.293c0.362-0.195,0.75-0.545,1.165-1.053h0.38c-0.711,1.497-1.998,2.245-3.859,2.245
			c-1.206,0-2.182-0.343-2.927-1.03c-0.746-0.686-1.118-1.586-1.118-2.699c0-1.138,0.41-2.09,1.231-2.857
			c0.82-0.767,1.844-1.15,3.07-1.15c0.402,0,0.873,0.041,1.412,0.121c0.464,0.074,0.78,0.111,0.948,0.111
			c0.192,0,0.38-0.078,0.566-0.232H61.128z"/>
		<path fill="#929497" d="M69.409,71.192v2.282h0.037c0.68-1.521,1.472-2.282,2.375-2.282c0.495,0,0.918,0.203,1.271,0.607
			l-0.473,2.166c-0.649-0.617-1.188-0.928-1.614-0.928c-0.315,0-0.591,0.074-0.826,0.223c-0.235,0.148-0.492,0.415-0.77,0.799v2.932
			c0,0.457,0.08,0.77,0.241,0.937c0.161,0.167,0.485,0.297,0.974,0.39v0.324H66.06v-0.324c0.47-0.111,0.787-0.256,0.951-0.436
			c0.164-0.18,0.246-0.477,0.246-0.891v-3.785c0-0.451-0.104-0.789-0.311-1.012c-0.208-0.223-0.54-0.353-0.998-0.39v-0.325
			l3.136-0.287H69.409z"/>
		<path fill="#929497" d="M85.26,76.434h0.325c-0.321,0.773-0.825,1.382-1.513,1.827c-0.686,0.445-1.459,0.668-2.318,0.668
			c-1.12,0-2.053-0.363-2.797-1.091c-0.746-0.727-1.119-1.637-1.119-2.731c0-1.113,0.383-2.044,1.146-2.792s1.711-1.123,2.844-1.123
			c1.02,0,1.869,0.293,2.547,0.877c0.676,0.584,1.08,1.368,1.21,2.352h-5.427c-0.007,0.1-0.01,0.198-0.01,0.297
			c0,0.971,0.244,1.76,0.731,2.365c0.487,0.607,1.093,0.91,1.815,0.91C83.727,77.993,84.581,77.473,85.26,76.434z M80.148,73.985
			h3.127c-0.044-0.674-0.215-1.224-0.512-1.646c-0.299-0.424-0.664-0.637-1.099-0.637s-0.788,0.208-1.061,0.622
			C80.332,72.739,80.18,73.292,80.148,73.985z"/>
		<path fill="#929497" d="M92.316,78.929c-0.594,0-1.1-0.185-1.516-0.552c-0.418-0.368-0.627-0.812-0.627-1.332
			s0.207-0.951,0.621-1.293c0.414-0.344,1.281-0.688,2.598-1.035c0.637-0.167,1.096-0.303,1.373-0.408
			c0-0.662-0.143-1.141-0.426-1.438c-0.285-0.297-0.736-0.445-1.355-0.445c-0.971,0-1.688,0.398-2.152,1.196h-0.277
			c0.191-0.772,0.566-1.372,1.127-1.796c0.56-0.423,1.254-0.635,2.082-0.635c0.959,0,1.725,0.235,2.297,0.705
			c0.572,0.471,0.857,1.129,0.857,1.977v3.377c0,0.637,0.146,0.955,0.437,0.955c0.303,0,0.491-0.223,0.565-0.668h0.307
			c-0.037,0.445-0.207,0.789-0.51,1.029c-0.304,0.242-0.715,0.362-1.234,0.362c-0.439,0-0.793-0.079-1.062-0.237
			c-0.27-0.156-0.493-0.415-0.672-0.773l-0.168,0.157C93.938,78.645,93.183,78.929,92.316,78.929z M94.748,77.408V74.69
			c-0.947,0.402-1.572,0.748-1.879,1.039s-0.459,0.664-0.459,1.122c0,0.39,0.091,0.704,0.273,0.942
			c0.182,0.237,0.422,0.356,0.719,0.356C93.805,78.15,94.252,77.903,94.748,77.408z"/>
		<path fill="#929497" d="M108.326,77.445l0.223,0.214c-0.502,0.848-1.269,1.271-2.301,1.271c-0.768,0-1.364-0.198-1.791-0.594
			s-0.641-0.958-0.641-1.688v-4.602h-1.289v-0.361c0.959-0.588,1.985-1.58,3.08-2.979h0.361v2.773h2.357v0.566h-2.357v4.129
			c0,0.648,0.104,1.117,0.311,1.404c0.208,0.289,0.54,0.432,0.998,0.432C107.654,78.01,108.004,77.823,108.326,77.445z"/>
		<path fill="#929497" d="M116.097,71.192h0.325v5.91c0,0.717,0.386,1.122,1.159,1.215v0.324h-4.509v-0.324
			c0.482-0.093,0.803-0.229,0.961-0.408c0.156-0.18,0.236-0.498,0.236-0.955v-3.822c0-0.439-0.084-0.746-0.251-0.919
			s-0.514-0.31-1.039-0.408v-0.325L116.097,71.192z M114.102,67.982c0-0.34,0.123-0.631,0.367-0.872s0.539-0.361,0.886-0.361
			c0.34,0,0.631,0.119,0.872,0.357c0.241,0.237,0.361,0.529,0.361,0.876s-0.12,0.642-0.361,0.886s-0.532,0.367-0.872,0.367
			c-0.347,0-0.642-0.124-0.886-0.371C114.225,68.616,114.102,68.323,114.102,67.982z"/>
		<path fill="#929497" d="M130.788,71.479v0.325c-0.353,0.037-0.657,0.183-0.914,0.437s-0.521,0.671-0.792,1.252l-2.587,5.437
			h-0.404l-2.696-5.566c-0.291-0.587-0.562-0.989-0.812-1.206c-0.25-0.217-0.57-0.334-0.96-0.353v-0.325h4.462v0.325
			c-0.451,0.087-0.677,0.31-0.677,0.667c0.001,0.148,0.044,0.312,0.132,0.492l1.654,3.34l1.285-2.664
			c0.197-0.402,0.297-0.745,0.297-1.029c0-0.494-0.295-0.763-0.882-0.806v-0.325H130.788z"/>
		<path fill="#929497" d="M144.098,75.051c0,1.102-0.41,2.022-1.23,2.765c-0.818,0.742-1.896,1.113-3.232,1.113
			s-2.416-0.37-3.242-1.108c-0.826-0.739-1.238-1.662-1.238-2.77c0-0.687,0.189-1.339,0.57-1.957
			c0.381-0.619,0.902-1.09,1.568-1.416c0.664-0.324,1.445-0.486,2.342-0.486c1.342,0,2.422,0.371,3.238,1.113
			S144.098,73.963,144.098,75.051z M141.723,75.055c0-1.064-0.182-1.89-0.543-2.475c-0.361-0.586-0.877-0.879-1.545-0.879
			c-0.687,0-1.209,0.301-1.568,0.902c-0.358,0.6-0.537,1.461-0.537,2.582c0,0.984,0.189,1.77,0.57,2.355
			c0.381,0.585,0.892,0.877,1.535,0.877c0.655,0,1.168-0.295,1.535-0.887C141.538,76.94,141.723,76.115,141.723,75.055z"/>
	</g>
	<g>
		<rect x="65.082" y="4.702" fill="#F9D661" width="18" height="36"/>
		<rect x="65.082" y="44.702" fill="#F9E699" width="18" height="19"/>
	</g>
</g>
</svg>
